<mxfile host="65bd71144e" scale="1" border="0" disableSvgWarning="true">
    <diagram id="QVV_8_wYwJ7n891jjr2S" name="Page-1">
        <mxGraphModel dx="1044" dy="161" grid="1" gridSize="10" guides="1" tooltips="1" connect="1" arrows="1" fold="1" page="1" pageScale="1" pageWidth="827" pageHeight="1169" math="0" shadow="0">
            <root>
                <mxCell id="0"/>
                <mxCell id="1" parent="0"/>
                <mxCell id="6" value="" style="group" vertex="1" connectable="0" parent="1">
                    <mxGeometry x="-810" y="10" width="590" height="80" as="geometry"/>
                </mxCell>
                <mxCell id="2" value="&lt;font face=&quot;EHUSans&quot;&gt;&lt;b&gt;Context:&lt;br&gt;&lt;/b&gt;Some people really dont understand why I get so upset at injustices happening in this country. Trust me, it's not that I like getting my panties in a wad over dumb things. It's the fact that people like me (minority, brown, immigrant, etc) r suffering and it affects me directly&lt;/font&gt;" style="text;html=1;strokeColor=none;fillColor=none;align=left;verticalAlign=top;whiteSpace=wrap;rounded=0;" vertex="1" parent="6">
                    <mxGeometry width="500" height="80" as="geometry"/>
                </mxCell>
                <mxCell id="5" value="&lt;b&gt;Label:&lt;/b&gt;&lt;br&gt;0" style="text;html=1;strokeColor=none;fillColor=none;align=left;verticalAlign=top;whiteSpace=wrap;rounded=0;fontFamily=EHUSans;fontStyle=0" vertex="1" parent="6">
                    <mxGeometry x="540" width="50" height="34.285714285714285" as="geometry"/>
                </mxCell>
                <mxCell id="7" value="" style="group" vertex="1" connectable="0" parent="1">
                    <mxGeometry x="-810" y="119" width="430" height="130" as="geometry"/>
                </mxCell>
                <mxCell id="3" value="&lt;b&gt;Model output:&lt;/b&gt;&lt;br&gt;Hate speech is not present in the previous sentences." style="text;html=1;strokeColor=none;fillColor=none;align=left;verticalAlign=top;whiteSpace=wrap;rounded=0;fontFamily=EHUSans;fontStyle=0" vertex="1" parent="7">
                    <mxGeometry width="323" height="40" as="geometry"/>
                </mxCell>
                <mxCell id="4" value="&lt;b&gt;Prediction:&lt;/b&gt;&lt;br&gt;if model_output == &lt;b&gt;&quot;&lt;/b&gt;Hate speech is not present in the previous sentences.&quot;:&lt;br&gt;&lt;span style=&quot;white-space: pre;&quot;&gt;&#9;&lt;/span&gt;0&lt;br&gt;else:&lt;br&gt;&lt;span style=&quot;white-space: pre;&quot;&gt;&#9;&lt;/span&gt;1" style="text;html=1;strokeColor=none;fillColor=none;align=left;verticalAlign=top;whiteSpace=wrap;rounded=0;fontFamily=EHUSans;fontStyle=0" vertex="1" parent="7">
                    <mxGeometry y="50" width="430" height="80" as="geometry"/>
                </mxCell>
            </root>
        </mxGraphModel>
    </diagram>
</mxfile>